<svg xmlns="http://www.w3.org/2000/svg" width="512" height="512" viewBox="0 0 512.001 512.001">
  <path xmlns="http://www.w3.org/2000/svg" d="M98.945 452.361c-33.484 0-47.07-13.247-58.013-23.916-7.716-7.522-13.811-13.463-28.257-16.102C4.282 410.809-1.28 402.762.254 394.37c1.533-8.394 9.581-13.958 17.973-12.422 23.715 4.333 35.114 15.445 44.272 24.374 9.324 9.088 15.534 15.143 36.329 15.143.337 0 .677-.002 1.021-.005 21.84-.202 26.181-8.318 35.689-26.101 6.591-12.328 14.795-27.669 31.157-41.119 6.591-5.417 16.326-4.467 21.744 2.127 5.417 6.591 4.466 16.326-2.125 21.744-11.626 9.555-17.677 20.872-23.529 31.817-10.541 19.713-22.488 42.058-62.65 42.427-.398.003-.797.006-1.19.006z" fill="#eda751" data-original="#eda751"/>
  <path d="M98.945 452.361c-33.484 0-47.07-13.247-58.013-23.916-7.716-7.522-13.811-13.463-28.257-16.102C4.282 410.809-1.28 402.762.254 394.37c1.533-8.394 9.581-13.958 17.973-12.422 23.715 4.333 35.114 15.445 44.272 24.374 9.324 9.088 15.534 15.143 36.329 15.143.337 0 .677-.002 1.021-.005 21.84-.202 26.181-8.318 35.689-26.101 6.591-12.328 14.795-27.669 31.157-41.119 6.591-5.417 16.326-4.467 21.744 2.127 5.417 6.591 4.466 16.326-2.125 21.744-11.626 9.555-17.677 20.872-23.529 31.817-10.541 19.713-22.488 42.058-62.65 42.427-.398.003-.797.006-1.19.006z" fill="#eda751" data-original="#eda751" xmlns="http://www.w3.org/2000/svg"/>
  <path xmlns="http://www.w3.org/2000/svg" d="M.254 394.369c-1.534 8.393 4.027 16.439 12.421 17.973 3.822.698 7.048 1.634 9.886 2.762 6.563-8.451 9.014-21.377 8.41-29.841-3.817-1.325-8.035-2.456-12.744-3.317-8.392-1.535-16.44 4.029-17.973 12.423z" fill="#fcd79d" data-original="#fcd79d"/>
  <g xmlns="http://www.w3.org/2000/svg" fill="#eda751">
    <path d="M191.779 512.001c-.995 0-2-.06-3.013-.183-13.551-1.646-23.202-13.968-21.555-27.519 3.616-29.748 2.148-56.581-3.741-68.357-6.105-12.211-1.156-27.058 11.054-33.163 12.213-6.103 27.058-1.155 33.163 11.054 14.222 28.445 11.492 72.626 8.599 96.43-1.525 12.539-12.187 21.738-24.507 21.738zM276.111 512.001c-.995 0-2.001-.06-3.014-.183-13.551-1.647-23.202-13.968-21.555-27.519 3.617-29.748 2.148-56.579-3.74-68.357-6.105-12.211-1.156-27.058 11.054-33.163 12.212-6.103 27.057-1.155 33.163 11.054 14.222 28.446 11.492 72.627 8.598 96.43-1.524 12.539-12.187 21.738-24.506 21.738zM95.557 365.686c-29.065 0-59.916-14.086-81.493-49.918-7.042-11.695-3.271-26.884 8.424-33.927 11.695-7.042 26.884-3.271 33.926 8.424 3.985 6.619 25.558 38.738 58.96 21.058 12.067-6.383 27.025-1.783 33.41 10.283 6.386 12.066 1.783 27.023-10.282 33.41-12.728 6.737-27.588 10.67-42.945 10.67zM363.391 384.002c-2.609 0-5.058-.173-7.324-.454-23.989-2.979-45.623-19.895-62.563-48.918-6.881-11.79-2.903-26.926 8.887-33.808 11.791-6.877 26.927-2.903 33.808 8.888 10.001 17.135 19.969 24.036 25.962 24.781 4.511.546 9.848-2.259 15.849-8.38 9.555-9.75 25.206-9.904 34.954-.348 9.748 9.558 9.903 25.207.347 34.955-18.17 18.533-36.21 23.284-49.92 23.284z" data-original="#eda751"/>
  </g>
  <g xmlns="http://www.w3.org/2000/svg" fill="#a35f00">
    <path d="M362.16 334.49c-5.993-.745-15.96-7.646-25.962-24.781-6.881-11.79-22.017-15.765-33.808-8.888-11.79 6.882-15.769 22.018-8.887 33.809 16.289 27.906 36.918 44.613 59.807 48.505 6.459-14.745 10.032-30.882 10.032-47.79 0-.267-.009-.531-.011-.797a9.658 9.658 0 01-1.171-.058zM302.587 440.75c-.93-16.614-3.865-33.512-10.567-46.917-6.105-12.209-20.951-17.157-33.163-11.054-12.21 6.105-17.159 20.952-11.054 33.163 4.166 8.331 6.116 24.199 5.622 43.3 17.867-3.061 34.506-9.466 49.162-18.492zM174.524 382.779c-12.21 6.105-17.159 20.952-11.054 33.163 3.302 6.604 5.214 17.943 5.618 31.875 15.071 7.159 31.764 11.721 49.414 13.054.602-22.223-1.353-48.111-10.816-67.038-6.104-12.209-20.949-17.157-33.162-11.054z" opacity=".2"/>
    <path d="M166.696 354.24c-16.363 13.45-24.566 28.791-31.157 41.119-4.155 7.771-7.324 13.696-11.397 17.922a131.494 131.494 0 0022.543 21.134c6.953-7.403 11.656-16.176 16.1-24.487 5.852-10.944 11.903-22.262 23.529-31.817 6.592-5.418 7.543-15.153 2.125-21.744-5.417-6.594-15.152-7.544-21.743-2.127zM115.374 311.324c-6.672 3.532-12.871 5.072-18.554 5.229a118.88 118.88 0 002.426 49.049c14.04-.574 27.55-4.39 39.255-10.585 12.065-6.387 16.669-21.344 10.282-33.41-6.384-12.065-21.342-16.666-33.409-10.283z" opacity=".2"/>
  </g>
  <ellipse xmlns="http://www.w3.org/2000/svg" cx="229.34" cy="335.341" rx="114.01" ry="105.94" fill="#fcd690" data-original="#fcd690"/>
  <path xmlns="http://www.w3.org/2000/svg" d="M212.686 440.156c-52.098-34.204-35.952-104.308-27.108-134.966v-67.693c-41.247 15.945-70.251 53.747-70.251 97.849 0 53.252 42.287 97.321 97.359 104.81z" fill="#c17a00" opacity=".15"/>
  <path xmlns="http://www.w3.org/2000/svg" d="M159.954 151.649c22.309-18.719 37.203-50.143 5.737-96.597C133.976 8.232 86.757-3.504 49.894.839a23.052 23.052 0 00-19.347 16.234c-10.678 35.55-7.32 84.089 33.282 123.453 40.283 39.054 73.817 29.842 96.125 11.123z" fill="#eda751" data-original="#eda751"/>
  <path xmlns="http://www.w3.org/2000/svg" d="M29.063 22.512c-8.754 34.953-3.804 80.619 34.766 118.013 34.916 33.852 64.755 31.433 86.615 18C135.41 56.464 69.735 29.4 29.063 22.512z" fill="#ff91ab" data-original="#ff91ab"/>
  <path xmlns="http://www.w3.org/2000/svg" d="M298.715 151.649c-22.309-18.719-37.203-50.143-5.737-96.597C324.693 8.232 371.912-3.505 408.776.838c9.088 1.071 16.714 7.469 19.347 16.234 10.678 35.55 7.32 84.089-33.282 123.453-40.284 39.055-73.817 29.843-96.126 11.124z" fill="#eda751" data-original="#eda751"/>
  <path xmlns="http://www.w3.org/2000/svg" d="M429.606 22.512c8.754 34.953 3.804 80.619-34.766 118.013-34.916 33.852-64.755 31.433-86.615 18C323.26 56.464 388.935 29.4 429.606 22.512z" fill="#ff91ab" data-original="#ff91ab"/>
  <path xmlns="http://www.w3.org/2000/svg" d="M423.43 179.902c0 88.746-86.9 127.616-194.096 127.616S35.239 268.648 35.239 179.902s86.9-160.689 194.096-160.689S423.43 91.157 423.43 179.902z" fill="#ffdc9c" data-original="#ffdc9c"/>
  <path xmlns="http://www.w3.org/2000/svg" d="M125.697 44.023c-54.359 28.476-90.458 78.685-90.458 135.879 0 76.289 64.216 115.72 150.339 125.287C61.951 231.344 78.075 132.014 125.697 44.023z" fill="#c17a00" opacity=".15"/>
  <ellipse xmlns="http://www.w3.org/2000/svg" cx="134.09" cy="183.651" rx="35.14" ry="27.986" data-original="#000000"/>
  <ellipse xmlns="http://www.w3.org/2000/svg" cx="324.58" cy="183.651" rx="35.14" ry="27.986" data-original="#000000"/>
  <g xmlns="http://www.w3.org/2000/svg">
    <path d="M154.572 159.52a7.5 7.5 0 01-7.5-7.5v-12.41c0-4.143 3.358-7.5 7.5-7.5s7.5 3.357 7.5 7.5v12.41a7.5 7.5 0 01-7.5 7.5zM304.098 159.52a7.5 7.5 0 01-7.5-7.5v-12.41c0-4.143 3.358-7.5 7.5-7.5s7.5 3.357 7.5 7.5v12.41a7.5 7.5 0 01-7.5 7.5zM84.536 187.884a7.503 7.503 0 01-7.27-5.683 7.5 7.5 0 015.457-9.096c9.651-2.413 32.648-4.132 43.849-2.651a7.501 7.501 0 016.453 8.418 7.502 7.502 0 01-8.418 6.453c-9.132-1.208-30.26.336-38.246 2.333a7.5 7.5 0 01-1.825.226zM95.729 229.524a7.5 7.5 0 01-4.46-13.534c8.004-5.907 28.611-16.259 39.531-19.158a7.5 7.5 0 013.85 14.498c-8.904 2.364-27.85 11.841-34.472 16.729a7.478 7.478 0 01-4.449 1.465zM374.133 187.884a7.5 7.5 0 01-1.825-.226c-7.985-1.997-29.113-3.54-38.246-2.333-4.109.547-7.875-2.347-8.419-6.453a7.5 7.5 0 016.453-8.418c11.199-1.481 34.197.238 43.849 2.651a7.5 7.5 0 015.457 9.096 7.5 7.5 0 01-7.269 5.683zM362.94 229.524a7.467 7.467 0 01-4.448-1.466c-6.622-4.888-25.568-14.364-34.472-16.729a7.5 7.5 0 013.85-14.498c10.92 2.899 31.527 13.251 39.531 19.158a7.5 7.5 0 01-4.461 13.535z" fill="#495059" data-original="#495059"/>
    <path d="M154.572 170.784c-4.63 0-14.298-.606-21.167-2.879a7.5 7.5 0 01-4.765-9.476 7.5 7.5 0 019.476-4.765c4.162 1.376 11.585 2.119 16.456 2.119 4.872 0 12.295-.743 16.456-2.119 3.935-1.303 8.175.832 9.476 4.765s-.833 8.175-4.765 9.476c-6.868 2.273-16.537 2.879-21.167 2.879zM173.385 136.345a7.474 7.474 0 01-2.356-.382c-4.162-1.376-11.585-2.119-16.456-2.119-4.872 0-12.295.743-16.456 2.119a7.5 7.5 0 01-4.711-14.241c6.869-2.272 16.537-2.879 21.167-2.879 4.63 0 14.299.606 21.167 2.879a7.5 7.5 0 014.765 9.476 7.505 7.505 0 01-7.12 5.147zM322.91 136.345a7.485 7.485 0 01-2.357-.382c-4.162-1.376-11.585-2.119-16.456-2.119-4.872 0-12.295.743-16.457 2.119a7.5 7.5 0 01-4.711-14.241c6.869-2.272 16.537-2.879 21.168-2.879 4.63 0 14.298.606 21.167 2.879a7.502 7.502 0 01-2.354 14.623zM304.098 170.784c-4.63 0-14.299-.606-21.168-2.879-3.933-1.301-6.066-5.543-4.765-9.476s5.543-6.066 9.476-4.765c4.162 1.376 11.585 2.119 16.457 2.119 4.871 0 12.294-.743 16.456-2.119a7.497 7.497 0 019.476 4.765 7.5 7.5 0 01-4.765 9.476c-6.869 2.273-16.537 2.879-21.167 2.879zM249.045 170.866h-39.421a7.5 7.5 0 010-15h39.421a7.5 7.5 0 010 15z" fill="#495059" data-original="#495059"/>
  </g>
  <path xmlns="http://www.w3.org/2000/svg" d="M433.18 352.561h-26.886c-10 0-18.134-8.135-18.134-18.135v-27.377c0-9.999 8.135-18.134 18.134-18.134h26.886c4.142 0 7.5 3.357 7.5 7.5s-3.358 7.5-7.5 7.5h-26.886a3.138 3.138 0 00-3.134 3.134v27.377a3.139 3.139 0 003.134 3.135h26.886a7.5 7.5 0 010 15z" fill="#b77866" data-original="#b77866"/>
  <path xmlns="http://www.w3.org/2000/svg" d="M500.505 368.933h-55.83c-6.349 0-11.495-5.147-11.495-11.495v-72.787a5.812 5.812 0 015.812-5.812h67.197a5.812 5.812 0 015.812 5.812v72.787c-.001 6.349-5.147 11.495-11.496 11.495z" fill="#9557f9" data-original="#78cfc0"/>
  <g xmlns="http://www.w3.org/2000/svg" fill="#dee2e5">
    <path d="M455.567 262.545a7.502 7.502 0 01-7.41-6.401c-1.746-11.784.916-21.019 3.054-28.439 1.724-5.98 3.085-10.703 1.867-15.209a7.5 7.5 0 0114.481-3.914c2.311 8.55.153 16.036-1.934 23.277-1.916 6.648-3.898 13.524-2.629 22.085a7.5 7.5 0 01-7.429 8.601zM491.213 262.545a7.502 7.502 0 01-7.41-6.401c-1.746-11.784.915-21.019 3.054-28.439 1.724-5.98 3.085-10.703 1.867-15.209a7.5 7.5 0 0114.481-3.914c2.31 8.55.153 16.036-1.934 23.277-1.916 6.648-3.898 13.524-2.629 22.085a7.5 7.5 0 01-7.429 8.601z" data-original="#dee2e5"/>
  </g>
</svg>